<svg width="28" height="28" viewBox="0 0 28 28" fill="none" xmlns="http://www.w3.org/2000/svg">
<path d="M23.0016 6.15776L14.2516 3.53276C14.1199 3.49565 13.9814 3.48917 13.8468 3.51381C13.7122 3.53846 13.585 3.59357 13.475 3.67495C13.367 3.75703 13.2792 3.86284 13.2185 3.9842C13.1578 4.10557 13.1258 4.23926 13.125 4.37495V16.2203C12.167 15.3508 10.9187 14.871 9.625 14.8749C8.58665 14.8749 7.57162 15.1829 6.70826 15.7597C5.8449 16.3366 5.17199 17.1565 4.77463 18.1159C4.37727 19.0752 4.27331 20.1308 4.47588 21.1492C4.67845 22.1676 5.17847 23.103 5.91269 23.8373C6.64692 24.5715 7.58238 25.0715 8.60078 25.2741C9.61918 25.4766 10.6748 25.3727 11.6341 24.9753C12.5934 24.578 13.4133 23.905 13.9902 23.0417C14.5671 22.1783 14.875 21.1633 14.875 20.1249V10.8062L22.4984 13.0921C22.6301 13.1292 22.7686 13.1357 22.9032 13.1111C23.0378 13.0864 23.165 13.0313 23.275 12.9499C23.3831 12.8679 23.4708 12.7621 23.5315 12.6407C23.5922 12.5193 23.6242 12.3856 23.625 12.2499V6.99995C23.6242 6.81151 23.5633 6.62826 23.4511 6.4768C23.339 6.32535 23.1815 6.21359 23.0016 6.15776ZM9.625 23.6249C8.93277 23.6249 8.25608 23.4197 7.68051 23.0351C7.10494 22.6505 6.65633 22.1039 6.39142 21.4643C6.12652 20.8248 6.05721 20.1211 6.19225 19.4421C6.3273 18.7632 6.66064 18.1396 7.15013 17.6501C7.63961 17.1606 8.26325 16.8272 8.94219 16.6922C9.62112 16.5571 10.3249 16.6265 10.9644 16.8914C11.6039 17.1563 12.1506 17.6049 12.5351 18.1805C12.9197 18.756 13.125 19.4327 13.125 20.1249C13.1221 21.0523 12.7524 21.9409 12.0967 22.5966C11.4409 23.2524 10.5524 23.6221 9.625 23.6249ZM21.875 11.0687L14.875 8.9687V5.5562L21.875 7.6562V11.0687Z" fill="white"/>
</svg>
