<svg width="20" height="18" viewBox="0 0 20 18" fill="none" xmlns="http://www.w3.org/2000/svg">
<path d="M19.0836 4.42038C18.8656 3.59934 18.2231 2.95272 17.4074 2.73328C15.9289 2.33453 10 2.33453 10 2.33453C10 2.33453 4.0712 2.33453 2.59261 2.73328C1.77689 2.95276 1.13443 3.59934 0.916382 4.42038C0.520203 5.90855 0.520203 9.01349 0.520203 9.01349C0.520203 9.01349 0.520203 12.1184 0.916382 13.6066C1.13443 14.4276 1.77689 15.0473 2.59261 15.2667C4.0712 15.6655 10 15.6655 10 15.6655C10 15.6655 15.9288 15.6655 17.4074 15.2667C18.2231 15.0473 18.8656 14.4276 19.0836 13.6066C19.4798 12.1184 19.4798 9.01349 19.4798 9.01349C19.4798 9.01349 19.4798 5.90855 19.0836 4.42038ZM8.06095 11.8325V6.19444L13.0163 9.01356L8.06095 11.8325Z" fill="white"/>
</svg>
