<svg width="95" height="70" viewBox="0 0 95 70" fill="none" xmlns="http://www.w3.org/2000/svg">
<path fill-rule="evenodd" clip-rule="evenodd" d="M27.7898 0.71115C27.0576 1.49883 25.0922 3.71627 24.0436 4.93755C23.6711 5.37142 23.3019 5.79431 23.2232 5.87721C23.082 6.02567 21.1778 8.185 20.3863 9.09405C20.1628 9.35074 19.2485 10.3845 18.3544 11.3914C17.4604 12.3981 16.4242 13.5805 16.0517 14.0189C15.3718 14.8187 14.4442 15.867 13.2867 17.1432C12.2751 18.2585 11.3184 19.3793 11.2023 19.5848C11.1427 19.6904 11.0056 19.7767 10.8975 19.7767C10.7278 19.7767 10.7011 18.5225 10.7011 10.5639V1.35105L6.06171 1.38667L1.4223 1.4223L1.38803 22.6552L1.35376 43.8881H6.02743H10.7011V33.4659C10.7011 27.1115 10.7508 23.0129 10.8283 22.965C10.975 22.8744 11.6157 23.5223 11.7276 23.8743C11.7691 24.0048 11.8482 24.1114 11.9033 24.1114C11.9583 24.1114 12.301 24.5227 12.6648 25.0257C13.0285 25.5287 13.409 26.0315 13.5104 26.1432C13.7307 26.3864 16.0568 29.3896 17.707 31.5615C18.8571 33.0755 20.2591 34.8723 20.5774 35.2404C20.6638 35.3404 21.435 36.3364 22.2912 37.4539C23.1475 38.5714 23.9235 39.5772 24.0157 39.6889C24.108 39.8007 24.7556 40.6435 25.4548 41.5618C26.1541 42.4802 26.854 43.3105 27.0103 43.4072C27.4428 43.6745 37.0485 43.5291 37.3266 43.251C37.7928 42.7849 37.5194 42.3249 34.7457 38.908L34.005 37.9957L34.0024 36.4041C34.0003 35.1438 34.0385 34.8125 34.1857 34.8125C34.3466 34.8125 34.9949 35.0605 35.9639 35.4926C36.1129 35.5591 36.7834 35.7712 37.4539 35.9641C38.1244 36.1569 38.8559 36.3683 39.0794 36.434C40.8178 36.9443 45.5132 37.627 48.4259 37.7929C56.5065 38.2534 65.8693 37.3519 72.9436 35.4325C79.1228 33.7559 82.0847 32.5582 86.4757 29.9605C88.6978 28.6459 90.8858 26.4343 91.7707 24.6081L92.1535 23.8181L92.0583 14.9906C91.9713 6.93134 91.943 6.14311 91.7322 5.93194C91.5167 5.71588 89.598 5.69204 62.9689 5.5742L34.4364 5.44795L32.9555 3.90916C32.141 3.06296 31.0523 1.92227 30.5362 1.37448C29.6163 0.398108 29.0723 0 28.6584 0C28.5442 0 28.1534 0.31995 27.7898 0.71115ZM30.3868 4.07089C31.1818 4.89434 31.8324 5.62987 31.8324 5.70532C31.8324 5.7809 31.2463 6.52429 30.5299 7.35749C29.8136 8.19068 28.9657 9.17722 28.6459 9.54973C28.3261 9.92223 27.6458 10.7147 27.1341 11.3107C26.6223 11.9067 26.0752 12.5467 25.9184 12.733C24.9924 13.8322 22.8868 16.2974 21.7717 17.5876C21.4163 17.999 20.9327 18.5866 20.697 18.8936C20.4615 19.2005 20.1334 19.5536 19.968 19.6784C19.6707 19.9027 19.6513 19.885 18.232 18.0906C17.4425 17.0925 16.7967 16.2366 16.7967 16.1883C16.7967 16.1401 17.2929 15.5411 17.8993 14.8571C19.3812 13.1857 20.4439 11.9783 21.0792 11.2444C21.6409 10.5953 21.6577 10.5762 22.2887 9.87347C22.5155 9.62098 23.8835 8.07324 25.3289 6.43421C28.3653 2.99089 28.7467 2.57368 28.8589 2.57368C28.9041 2.57368 29.5917 3.24745 30.3868 4.07089ZM39.9598 13.55C39.9598 20.0355 39.9608 20.0567 40.2443 20.1616L40.5286 20.2668L40.5087 27.5732C40.4977 31.5917 40.4418 34.9265 40.3844 34.984C40.1519 35.2164 36.1424 33.9973 34.6478 33.2398L33.9611 32.892L34.0555 28.5355C34.1074 26.1394 34.2062 21.7409 34.275 18.7608C34.3437 15.7808 34.4014 11.966 34.403 10.2835C34.4047 8.60098 34.4467 7.1837 34.4965 7.13412C34.546 7.08441 35.7956 7.04377 37.2733 7.04377H39.9598V13.55ZM48.1889 7.2074C48.32 7.31617 48.3582 8.79658 48.3582 13.7654C48.3582 19.3797 48.3837 20.1831 48.5614 20.1831C48.7396 20.1831 48.7646 21.1614 48.7646 28.1751V36.167L47.8502 36.1662C47.3474 36.1658 46.3568 36.0808 45.649 35.9771C44.9413 35.8736 43.9965 35.7485 43.5495 35.699C42.1247 35.5414 42.2626 35.9387 42.2629 31.9927C42.263 30.0792 42.3033 26.6422 42.3523 24.3551C42.4399 20.2729 42.4467 20.1956 42.7245 20.1559C43.0065 20.1155 43.0078 20.0907 43.0415 13.7489C43.0602 10.2473 43.1049 7.30398 43.1408 7.20808C43.2235 6.98755 47.9231 6.98688 48.1889 7.2074ZM56.7764 12.1911C56.8247 14.9104 56.8856 21.4327 56.9119 26.685L56.9597 36.2348L53.7426 36.2711L50.5255 36.3074V28.2538V20.2003L50.9657 20.1578L51.406 20.1154L51.4412 13.6443L51.4763 7.1734L54.0826 7.21011L56.6888 7.24695L56.7764 12.1911ZM65.2903 21.2571V35.3351L64.5792 35.4761C64.188 35.5536 63.4718 35.6542 62.9876 35.6996C62.5033 35.745 61.4135 35.8731 60.566 35.9845C59.7184 36.0958 58.975 36.1367 58.9139 36.0753C58.8061 35.967 58.5119 7.484 58.6166 7.28082C58.6453 7.22501 60.1587 7.17923 61.9796 7.17923H65.2903V21.2571ZM72.8977 9.06249C72.9469 10.0611 73.0079 16.0281 73.0332 22.3227L73.0791 33.7672L72.4695 33.9366C70.8869 34.3763 67.302 35.0804 67.139 34.9836C67.0243 34.9153 67.1645 7.4771 67.2807 7.27811C67.3142 7.22068 68.5716 7.1902 70.0749 7.21038L72.8082 7.24695L72.8977 9.06249ZM90.4524 15.5776L90.4871 23.7727L89.9174 24.6445C89.6039 25.124 88.9113 25.9469 88.3782 26.4732C87.5046 27.3355 86.974 27.7359 84.9218 29.0817C84.1638 29.579 81.5464 30.8585 80.2583 31.3617C79.7368 31.5654 79.0663 31.8393 78.7683 31.9706C78.0761 32.2752 75.3137 33.187 75.0829 33.187C74.9442 33.187 74.9078 32.4609 74.9076 29.699C74.9076 27.7806 74.8671 21.9588 74.8177 16.7617L74.7278 7.31252L82.5728 7.34746L90.4176 7.38241L90.4524 15.5776ZM32.8642 8.77085C32.821 9.19916 32.7221 13.5728 32.6443 18.4899C32.3856 34.8653 32.364 35.6252 32.1555 35.6252C32.0523 35.6252 31.9679 35.5587 31.9679 35.4774C31.9679 35.3963 31.6784 34.9857 31.3245 34.5653C30.9705 34.1448 30.6201 33.7208 30.5456 33.6229C30.4711 33.525 30.3131 33.3411 30.1946 33.2144C30.0761 33.0876 29.7174 32.6181 29.3976 32.1711C29.0778 31.7241 28.7462 31.2974 28.6607 31.2229C28.4923 31.076 27.5955 29.9543 24.3831 25.8723C23.2397 24.4195 22.0251 22.8811 21.684 22.4538C21.3428 22.0264 21.0636 21.6192 21.0636 21.5489C21.0636 21.4345 22.7592 19.3884 24.3823 17.5447C25.0501 16.786 25.2401 16.5644 28.4496 12.8007C30.9706 9.84448 31.7647 8.91633 32.2351 8.3764C32.779 7.75207 32.9556 7.86288 32.8642 8.77085ZM0.0926524 46.9562C-0.144939 47.1937 0.0726049 47.2745 0.949283 47.2745H1.89857L1.86362 55.1649L1.82867 63.0553L0.914335 63.0954C0.411519 63.1173 0 63.1936 0 63.2647C0 63.3433 1.352 63.3939 3.45416 63.3939C5.66658 63.3939 6.90831 63.3453 6.90831 63.2585C6.90831 63.1833 6.54867 63.123 6.10031 63.123C5.44009 63.123 5.26671 63.0751 5.15211 62.861C4.98523 62.5491 4.9603 55.5576 5.12515 55.2977C5.20927 55.1652 5.93234 55.1342 8.2725 55.1622L11.3107 55.1988V59.127V63.0553L10.4641 63.0956C9.99849 63.1177 9.61745 63.194 9.61745 63.265C9.61745 63.3431 10.9497 63.3939 13.0039 63.3939C15.1712 63.3939 16.3903 63.3452 16.3903 63.2585C16.3903 63.184 16.0397 63.1221 15.6114 63.121C15.1831 63.1198 14.7559 63.0702 14.6621 63.0107C14.5278 62.9254 14.4991 61.2567 14.5267 55.1224L14.5616 47.3423L15.4852 47.302C16.1305 47.2739 16.3923 47.2126 16.3544 47.0988C16.3146 46.9791 15.4142 46.9263 12.9588 46.8997C10.046 46.868 9.61745 46.8898 9.61745 47.069C9.61745 47.2317 9.80127 47.2745 10.5001 47.2745H11.3827L11.3467 51.0335L11.3107 54.7924L8.2725 54.829C5.93234 54.857 5.20927 54.826 5.12515 54.6935C4.99931 54.4951 4.97046 47.8111 5.09414 47.4888C5.15739 47.324 5.3786 47.2745 6.05358 47.2745C6.69524 47.2745 6.91576 47.229 6.87458 47.1052C6.83191 46.9772 6.0082 46.9271 3.5017 46.8997C1.67764 46.8798 0.143584 46.9053 0.0926524 46.9562ZM20.9238 53.4172C20.0995 53.6527 19.4615 54.1094 19.1282 54.7026C18.4684 55.8765 18.9006 56.7565 20.1369 56.7565C21.1287 56.7565 21.3104 56.5063 21.2796 55.1824C21.2588 54.2782 21.2943 54.1033 21.5557 53.825C21.7891 53.5765 21.9985 53.5056 22.4974 53.5056C23.0476 53.5056 23.189 53.5649 23.4898 53.9224C23.8193 54.3141 23.8404 54.4264 23.8404 55.7934C23.8404 57.2075 23.8302 57.257 23.4679 57.5861C23.0312 57.983 22.7343 58.1175 21.1262 58.6474C19.0778 59.3225 18.3928 59.8817 18.2156 61.0234C17.9456 62.7639 19.5217 63.8524 21.9407 63.5963C22.7519 63.5104 22.8702 63.4553 23.3807 62.9244L23.937 62.3462L24.4785 62.9716L25.0197 63.5971L26.3273 63.5925C27.5211 63.5884 27.6613 63.5603 27.9388 63.2689C28.2195 62.9743 28.2221 62.958 27.9719 63.0556C27.4451 63.2612 27.0204 63.2597 26.7528 63.0515C26.4961 62.8517 26.4783 62.6371 26.4141 58.952C26.3474 55.1144 26.3421 55.0569 26.0183 54.5786C25.6098 53.9753 24.9723 53.5492 24.2174 53.3751C23.4501 53.1981 21.6085 53.2216 20.9238 53.4172ZM62.1071 53.4222C61.1694 53.7453 60.6372 54.0795 59.9697 54.7641C57.8387 56.9498 57.8864 60.0771 60.0838 62.2305C61.0995 63.226 62.0846 63.5845 63.7821 63.5762C64.9269 63.5708 65.187 63.5227 65.8999 63.1855C66.9331 62.6967 68.0202 61.6142 68.5 60.5961C68.8295 59.8968 68.873 59.6461 68.873 58.4497C68.873 57.2455 68.8306 57.005 68.4905 56.2824C68.0222 55.2876 66.9681 54.2107 65.9676 53.7048C65.341 53.388 65.0181 53.3208 63.9358 53.2819C63.0826 53.2512 62.4663 53.2986 62.1071 53.4222ZM35.2866 53.5076C34.8952 53.6814 34.5015 54.0432 34.0725 54.6231C33.8658 54.9025 33.6429 55.131 33.5772 55.131C33.5117 55.131 33.4579 54.7653 33.4579 54.3183V53.5056H31.4938C30.3505 53.5056 29.5296 53.5591 29.5296 53.6336C29.5296 53.704 29.8191 53.7803 30.1731 53.8029L30.8165 53.8442V58.4497V63.0553L30.1731 63.0966C29.8191 63.1192 29.5296 63.1955 29.5296 63.2659C29.5296 63.3422 30.6529 63.3939 32.3065 63.3939C34.0675 63.3939 35.0834 63.3443 35.0834 63.2585C35.0834 63.184 34.7939 63.1221 34.44 63.121C34.086 63.1198 33.7164 63.068 33.6184 63.006C33.4771 62.9163 33.4499 62.1985 33.4866 59.52C33.5301 56.3447 33.5508 56.1093 33.84 55.5042C34.1896 54.7729 35.0106 53.9119 35.3585 53.9119C35.7856 53.9119 35.9388 54.2716 35.8556 55.0782C35.7294 56.301 35.9943 56.6151 37.1556 56.6192C37.8941 56.6219 38.3344 56.1193 38.3344 55.2737C38.3344 53.9933 37.68 53.3647 36.3618 53.3786C35.9194 53.3834 35.4356 53.4415 35.2866 53.5076ZM44.7316 53.6567C44.4134 53.8144 43.9696 54.1648 43.7457 54.4356C43.4102 54.8413 43.3158 54.8921 43.2091 54.7247C43.1378 54.6129 43.0786 54.293 43.0774 54.0135L43.0754 53.5056H41.1112C39.968 53.5056 39.1471 53.5591 39.1471 53.6336C39.1471 53.704 39.4366 53.7803 39.7905 53.8029L40.4339 53.8442V58.4497V63.0553L39.8583 63.0969C39.5417 63.1199 39.2826 63.196 39.2826 63.2662C39.2826 63.3416 40.3101 63.3939 41.7885 63.3939C43.2615 63.3939 44.2945 63.3415 44.2945 63.2666C44.2945 63.1967 44.066 63.1204 43.7865 63.0973L43.2785 63.0553L43.2422 59.6038C43.2107 56.5887 43.2363 56.0684 43.4447 55.4884C43.9481 54.0887 45.3197 53.4869 46.2586 54.2535L46.665 54.5854V58.8203V63.0553L46.0893 63.0969C45.7727 63.1199 45.5136 63.196 45.5136 63.2662C45.5136 63.3416 46.5412 63.3939 48.0195 63.3939C49.5999 63.3939 50.5255 63.3439 50.5255 63.2585C50.5255 63.184 50.3476 63.123 50.1302 63.123C49.2671 63.123 49.3054 63.2945 49.3168 59.485C49.3277 55.8849 49.395 55.3478 49.9159 54.7087C50.3825 54.1364 50.8231 53.9119 51.4802 53.9119C52.2455 53.9119 52.6132 54.2473 52.8168 55.131C52.8944 55.4681 52.9586 57.3546 52.9605 59.3496C52.964 63.3074 53.0041 63.123 52.1399 63.123C51.9225 63.123 51.7446 63.184 51.7446 63.2585C51.7446 63.3439 52.6702 63.3939 54.2506 63.3939C55.8309 63.3939 56.7565 63.3439 56.7565 63.2585C56.7565 63.184 56.5164 63.123 56.2227 63.123C55.929 63.123 55.6536 63.0661 55.6107 62.9965C55.5676 62.9269 55.5082 61.2518 55.4786 59.274C55.4433 56.9139 55.3669 55.5027 55.2565 55.1676C54.8334 53.8833 54.0001 53.3701 52.3379 53.3701C51.3747 53.3701 51.1872 53.4136 50.6316 53.766C50.2882 53.9837 49.8685 54.3495 49.6991 54.5788C49.5296 54.808 49.3497 54.9956 49.2993 54.9956C49.2489 54.9956 49.0403 54.7539 48.8355 54.4585C48.3043 53.6918 47.5599 53.3701 46.3174 53.3702C45.5651 53.3702 45.164 53.4427 44.7316 53.6567ZM76.7364 53.6337C76.2014 53.9068 75.3182 54.6494 75.3098 54.8332C75.3075 54.8852 75.2136 55.0495 75.1013 55.1981C74.9261 55.43 74.8789 55.4396 74.7691 55.2658C74.6986 55.1545 74.6401 54.7129 74.6389 54.2844L74.6369 53.5056H72.6727C71.4536 53.5056 70.7086 53.5569 70.7086 53.641C70.7086 53.7155 70.9707 53.7765 71.2911 53.7765C71.6114 53.7765 71.9467 53.8496 72.0361 53.939C72.2687 54.1716 72.2687 62.7279 72.0361 62.9605C71.9467 63.0499 71.6419 63.123 71.3588 63.123C71.0757 63.123 70.8441 63.184 70.8441 63.2585C70.8441 63.3441 71.7923 63.3939 73.4177 63.3939C74.9385 63.3939 75.9914 63.3416 75.9914 63.2662C75.9914 63.196 75.7323 63.1199 75.4157 63.0969L74.84 63.0553L74.8407 59.6689C74.8415 56.363 74.8493 56.2679 75.1642 55.6729C75.8588 54.3607 76.4179 53.9142 77.3678 53.9129C77.9072 53.9121 78.0504 53.9727 78.3499 54.3287C78.5428 54.5579 78.7329 54.878 78.7725 55.0399C78.8119 55.2017 78.8272 57.0715 78.8062 59.1948L78.7683 63.0553L78.2265 63.0982C77.9285 63.1218 77.6267 63.198 77.556 63.2675C77.4762 63.3458 78.4425 63.3939 80.0958 63.3939C81.6813 63.3939 82.7643 63.3419 82.7643 63.2659C82.7643 63.1955 82.4747 63.1192 82.1209 63.0966L81.4774 63.0553L81.4097 59.2625C81.3448 55.6309 81.3286 55.4426 81.0257 54.8336C80.8518 54.4837 80.486 54.0265 80.2129 53.8176C79.7672 53.4766 79.5922 53.4338 78.4974 53.3975C77.4843 53.3639 77.1867 53.4038 76.7364 53.6337ZM64.8054 53.7698C65.7128 54.3306 66.1031 55.7131 66.1031 58.3671C66.1031 62.035 65.4474 63.3939 63.678 63.3939C61.8925 63.3939 61.2943 62.1531 61.2943 58.4497C61.2943 55.4946 61.5873 54.4246 62.5812 53.7496C63.0648 53.4213 64.2591 53.4321 64.8054 53.7698ZM83.4416 53.6329C83.4416 53.7028 83.6682 53.779 83.9453 53.8022C84.512 53.8495 84.5735 53.935 85.1447 55.4697C85.5798 56.6387 86.3967 58.7156 86.6365 59.2625C86.7344 59.486 87.0948 60.4003 87.4373 61.2943C87.7799 62.1884 88.1486 63.12 88.2568 63.3647C88.3649 63.6093 88.4532 63.975 88.4528 64.1774C88.4521 64.5365 87.8642 66.235 87.2235 67.7285C86.705 68.9371 85.8195 69.7493 85.2562 69.5331C85.035 69.4482 85.0421 68.9795 85.2803 67.9737C85.4665 67.1864 84.3245 66.6429 83.3841 67.0712C82.9183 67.2834 82.7067 67.9599 82.8916 68.6464C83.2059 69.8136 84.7917 70.3668 86.0143 69.7359C86.7918 69.3347 87.171 68.7465 87.9634 66.7126C88.3118 65.8186 88.6865 64.8869 88.7961 64.6423C88.9056 64.3977 88.9953 64.1404 88.9953 64.0708C88.9953 63.9381 90.7626 59.2935 91.2373 58.1788C93.1544 53.6766 93.0987 53.7765 93.6945 53.7765C93.8665 53.7765 94.0072 53.7155 94.0072 53.641C94.0072 53.5589 93.4203 53.5056 92.5172 53.5056C91.6141 53.5056 91.0272 53.5589 91.0272 53.641C91.0272 53.7155 91.3588 53.7765 91.7642 53.7765C92.1696 53.7765 92.5387 53.8373 92.5847 53.9115C92.6306 53.9859 92.5051 54.4277 92.3059 54.8936C91.6472 56.4333 91.5992 56.5476 91.2981 57.2984C91.1338 57.7081 90.9184 58.2262 90.8197 58.4497C90.7208 58.6732 90.5122 59.1571 90.3558 59.525C90.1116 60.0997 90.0455 60.1664 89.8853 59.9991C89.7827 59.8919 89.5351 59.3776 89.3349 58.8561C88.6983 57.1966 88.0164 55.4878 87.7568 54.9014C87.6185 54.5889 87.5053 54.2079 87.5053 54.0548C87.5053 53.8157 87.5902 53.7765 88.1068 53.7765C88.4378 53.7765 88.7461 53.7155 88.7921 53.641C88.8469 53.5524 87.9356 53.5056 86.1587 53.5056C84.5539 53.5056 83.4416 53.5577 83.4416 53.6329ZM23.8167 60.4139C23.7631 62.3256 23.6033 62.7386 22.7852 63.0805C21.6523 63.5538 20.7794 62.5458 20.885 60.8862C20.956 59.7714 21.3609 59.2442 22.7575 58.4481L23.7727 57.8693L23.8185 58.295C23.8437 58.5291 23.8429 59.4826 23.8167 60.4139Z" fill="white"/>
</svg>
